<?xml version="1.0" encoding="UTF-8"?>
<!DOCTYPE svg PUBLIC "-//W3C//DTD SVG 1.1//EN" "http://www.w3.org/Graphics/SVG/1.1/DTD/svg11.dtd">
<!-- Creator: CorelDRAW -->
<svg xmlns="http://www.w3.org/2000/svg" xml:space="preserve" width="2.41445in" height="1.68753in" version="1.1" style="shape-rendering:geometricPrecision; text-rendering:geometricPrecision; image-rendering:optimizeQuality; fill-rule:evenodd; clip-rule:evenodd"
viewBox="0 0 747.35 522.34"
 xmlns:xlink="http://www.w3.org/1999/xlink"
 xmlns:xodm="http://www.corel.com/coreldraw/odm/2003">
 <defs>
  <style type="text/css">
   <![CDATA[
    .str0 {stroke:#FF0099;stroke-width:4.1;stroke-miterlimit:2.61313}
    .fil2 {fill:none}
    .fil1 {fill:#FF4FD8}
    .fil3 {fill:white}
    .fil0 {fill:#FF0099;fill-rule:nonzero}
    .fil4 {fill:#FF4FD8;fill-rule:nonzero}
   ]]>
  </style>
     <clipPath id="id0">
      <path d="M-0 1.25l459.19 -1.25 0 521.09 -459.19 1.25 0 -521.09z"/>
     </clipPath>
     <clipPath id="id1">
      <path d="M608.72 196.76l138.63 -1.72 0 132.83 -138.63 1.72 0 -132.83z"/>
     </clipPath>
 </defs>
 <g id="Layer_x0020_1">
  <metadata id="CorelCorpID_0Corel-Layer"/>
  <g id="_2514558273200">
   <g>
    <g style="clip-path:url(#id0)">
     <image x="-0" y="0" width="459.19" height="522.34" xlink:href="Untitled-1_Images\Untitled-1_ImgID1.png"/>
    </g>
   </g>
   <g>
    <path class="fil0" d="M108 262.05l157.77 153.06 -2.87 2.91 -157.77 -153.06 -0.03 -2.88 2.9 -0.03zm154.15 -153.82l-154.12 156.7 -2.93 -2.85 154.12 -156.7 2.9 -0.03 0.03 2.88zm83.93 84.27l-86.83 -84.24 2.87 -2.91 86.83 84.24 -1.43 3.5 -1.43 -0.58zm69.07 0.58l-67.64 0 0 -4.08 67.64 0 1.43 0.58 -1.43 3.5zm-153.81 -154.11l155.25 150.61 -2.87 2.91 -155.25 -150.61 -0.03 -2.88 2.9 -0.03zm-223.07 223.89l220.17 -223.85 2.93 2.85 -220.17 223.85 -2.9 0.03 -0.03 -2.88zm225.43 221.54l-225.39 -218.66 2.87 -2.91 225.39 218.66 0.03 2.88 -2.9 0.03zm151.03 -150.65l-148.13 150.61 -2.93 -2.85 148.13 -150.61 1.47 -0.61 1.47 3.46zm-67.53 -3.46l66.07 0 0 4.08 -66.07 0 -1.47 -3.46 1.47 -0.61zm-84.32 84.85l82.85 -84.24 2.93 2.85 -82.85 84.24 -2.9 0.03 -0.03 -2.88z"/>
    <polygon id="_1" class="fil1" points="264.34,416.57 106.57,263.51 260.68,106.82 347.51,191.05 415.15,191.05 259.9,40.44 39.73,264.29 265.12,482.95 413.26,332.34 347.19,332.34 "/>
   </g>
   <g>
    <g style="clip-path:url(#id1)">
     <image x="608.72" y="195.04" width="138.63" height="134.55" xlink:href="Untitled-1_Images\Untitled-1_ImgID2.png"/>
    </g>
   </g>
   <g>
    <polygon class="fil2 str0" points="636.88,216.31 682.15,260.53 636.67,307.08 678.83,307.08 724.8,260.03 680.04,216.31 "/>
    <polygon id="_1_0" class="fil1" points="636.88,216.31 682.15,260.53 636.67,307.08 678.83,307.08 724.8,260.03 680.04,216.31 "/>
   </g>
   <g>
    <path class="fil3" d="M180.53 297.93l0 -72.47c0,-3.49 2.83,-6.32 6.32,-6.32l14.47 0c3.49,0 6.32,2.83 6.32,6.32l0 51.58 51.58 0c3.49,0 6.32,2.83 6.32,6.32l0 14.57c0,3.49 -2.83,6.32 -6.32,6.32l-72.37 0c-3.49,0 -6.32,-2.83 -6.32,-6.32zm6.32 0l0 -72.47 14.47 0 0 57.9 57.9 0 0 14.57 -72.37 0z"/>
   </g>
   <g>
    <path id="_1_1" class="fil3" d="M263.22 297.93l0 -57.9c0,-1.88 0.24,-3.7 0.71,-5.46 0.47,-1.76 1.19,-3.45 2.16,-5.06 0.95,-1.58 2.02,-2.97 3.22,-4.18 1.2,-1.2 2.59,-2.28 4.18,-3.22 1.61,-0.97 3.3,-1.69 5.06,-2.16 1.76,-0.47 3.59,-0.71 5.46,-0.71l43.32 0c1.88,0 3.7,0.24 5.46,0.71 1.76,0.47 3.45,1.2 5.06,2.16 1.53,0.92 2.91,1.99 4.15,3.21l0.01 -0.01c1.24,1.22 2.33,2.6 3.26,4.13 0.11,0.18 0.21,0.36 0.3,0.54 0.83,1.45 1.47,2.96 1.9,4.55 0.5,1.81 0.75,3.65 0.75,5.51l0 57.9c0,3.49 -2.83,6.32 -6.32,6.32l-14.68 0c-3.49,0 -6.32,-2.83 -6.32,-6.32 0,-0.19 0.01,-0.39 0.03,-0.58l0.07 -16.92 -30.68 0 0 17.5c0,3.49 -2.83,6.32 -6.32,6.32l-14.47 0c-3.49,0 -6.32,-2.83 -6.32,-6.32zm6.32 0l0 -57.9c0,-2.68 0.65,-5.11 1.96,-7.29 1.31,-2.18 3.05,-3.92 5.23,-5.23 2.18,-1.31 4.61,-1.96 7.29,-1.96l43.32 0c2.68,0 5.11,0.65 7.29,1.96 2.18,1.31 3.94,3.05 5.28,5.23 1.34,2.18 2.01,4.61 2.01,7.29l0 57.9 -14.68 0 0.1 -23.82 -43.32 0 0 23.82 -14.47 0zm14.47 -38.3l43.22 0 0 -18.9c0.07,-0.2 0.03,-0.37 -0.1,-0.5 -0.13,-0.13 -0.3,-0.17 -0.5,-0.1l-42.02 0c-0.2,-0.07 -0.35,-0.03 -0.45,0.1 -0.1,0.13 -0.15,0.3 -0.15,0.5l0 18.9zm6.32 -6.32l30.58 0 0 -6.86 -30.58 0 0 6.86z"/>
   </g>
   <g>
    <path id="_2" class="fil3" d="M351.34 297.93l0 -72.37c0,-3.49 2.83,-6.32 6.32,-6.32l15.38 0c2.08,0 3.92,1 5.07,2.55l30.92 36.87 0 -33.1c0,-3.49 2.83,-6.32 6.32,-6.32l14.68 0c3.49,0 6.32,2.83 6.32,6.32l0 72.37c0,3.49 -2.83,6.32 -6.32,6.32l-15.38 0c-2.08,0 -3.92,-1 -5.07,-2.55l-31.13 -37.09 0 33.31c0,3.49 -2.83,6.32 -6.32,6.32l-14.47 0c-3.49,0 -6.32,-2.83 -6.32,-6.32zm6.32 0l0 -72.37 15.38 0 42.32 50.46 0 -50.46 14.68 0 0 72.37 -15.38 0 -42.52 -50.66 0 50.66 -14.47 0z"/>
   </g>
   <g>
    <path id="_3" class="fil3" d="M460.05 304.25c-3.82,0 -7.33,-0.96 -10.52,-2.87 -1.53,-0.92 -2.92,-2 -4.15,-3.23l-0.01 -0.01 -0.01 -0.01 -0 -0c-1.23,-1.23 -2.31,-2.62 -3.22,-4.15 -0.97,-1.61 -1.69,-3.3 -2.16,-5.06 -0.47,-1.76 -0.71,-3.59 -0.71,-5.46l0 -43.42c0,-1.88 0.24,-3.7 0.71,-5.46 0.47,-1.76 1.19,-3.45 2.16,-5.06 0.95,-1.58 2.02,-2.97 3.22,-4.18 1.2,-1.2 2.59,-2.28 4.18,-3.22 1.61,-0.97 3.3,-1.69 5.06,-2.16 1.76,-0.47 3.59,-0.71 5.46,-0.71l57.7 0c3.49,0 6.32,2.83 6.32,6.32l0 14.58c0,3.49 -2.83,6.32 -6.32,6.32l-51.38 0 0 30.58 51.38 0c3.49,0 6.32,2.83 6.32,6.32l0 14.57c0,3.49 -2.83,6.32 -6.32,6.32l-57.7 0zm0 -6.32c-2.68,0 -5.11,-0.65 -7.29,-1.96 -2.18,-1.31 -3.92,-3.05 -5.23,-5.23 -1.31,-2.18 -1.96,-4.61 -1.96,-7.29l0 -43.42c0,-2.68 0.65,-5.11 1.96,-7.29 1.31,-2.18 3.05,-3.92 5.23,-5.23 2.18,-1.31 4.61,-1.96 7.29,-1.96l57.7 0 0 14.58 -54.28 0c-1.07,0 -1.91,0.28 -2.51,0.85 -0.6,0.57 -0.91,1.42 -0.91,2.56l0 36.39c0,1.07 0.3,1.91 0.91,2.51 0.6,0.6 1.44,0.91 2.51,0.91l54.28 0 0 14.57 -57.7 0z"/>
   </g>
   <g>
    <path id="_4" class="fil3" d="M526.36 297.93l0 -72.37c0,-3.49 2.83,-6.32 6.32,-6.32l66.64 0c3.49,0 6.32,2.83 6.32,6.32 0,0.17 -0.01,0.34 -0.02,0.51l0.1 14.04c0.01,3.48 -2.8,6.31 -6.27,6.32 -0.01,0 -0.02,0 -0.02,0l-45.83 -0.09 0.01 1.78 35.56 0.09c3.47,0 6.28,2.81 6.3,6.27l0.1 14.58c0.01,3.48 -2.8,6.31 -6.27,6.32 -0.01,0 -0.02,0 -0.02,0l-35.68 -0.09 0.01 1.78 45.72 0.09c3.47,0 6.28,2.81 6.3,6.27l0.1 14.47c0.01,3.48 -2.8,6.31 -6.27,6.32 -0.01,0 -0.02,0 -0.02,0l0 0.02 -66.75 0c-3.49,0 -6.32,-2.83 -6.32,-6.32zm6.32 0l0 -72.37 66.64 0 0.1 14.58 -52.17 -0.1 0.1 14.37 41.82 0.1 0.1 14.58 -42.02 -0.1 0.1 14.37 51.97 0.1 0.1 14.47 -66.75 0z"/>
   </g>
   <polygon id="_5" class="fil4" points="186.85,297.93 186.85,225.46 201.32,225.46 201.32,283.36 259.22,283.36 259.22,297.93 "/>
   <path id="_6" class="fil4" d="M269.54 297.93l0 -57.9c0,-2.68 0.65,-5.11 1.96,-7.29 1.31,-2.18 3.05,-3.92 5.23,-5.23 2.18,-1.31 4.61,-1.96 7.29,-1.96l43.32 0c2.68,0 5.11,0.65 7.29,1.96 2.18,1.31 3.94,3.05 5.28,5.23 1.34,2.18 2.01,4.61 2.01,7.29l0 57.9 -14.68 0 0.1 -23.82 -43.32 0 0 23.82 -14.47 0zm14.47 -38.3l43.22 0 0 -18.9c0.07,-0.2 0.03,-0.37 -0.1,-0.5 -0.13,-0.13 -0.3,-0.17 -0.5,-0.1l-42.02 0c-0.2,-0.07 -0.35,-0.03 -0.45,0.1 -0.1,0.13 -0.15,0.3 -0.15,0.5l0 18.9z"/>
   <polygon id="_7" class="fil4" points="357.66,297.93 357.66,225.56 373.04,225.56 415.36,276.02 415.36,225.56 430.03,225.56 430.03,297.93 414.65,297.93 372.13,247.27 372.13,297.93 "/>
   <path id="_8" class="fil4" d="M460.05 297.93c-2.68,0 -5.11,-0.65 -7.29,-1.96 -2.18,-1.31 -3.92,-3.05 -5.23,-5.23 -1.31,-2.18 -1.96,-4.61 -1.96,-7.29l0 -43.42c0,-2.68 0.65,-5.11 1.96,-7.29 1.31,-2.18 3.05,-3.92 5.23,-5.23 2.18,-1.31 4.61,-1.96 7.29,-1.96l57.7 0 0 14.58 -54.28 0c-1.07,0 -1.91,0.28 -2.51,0.85 -0.6,0.57 -0.91,1.42 -0.91,2.56l0 36.39c0,1.07 0.3,1.91 0.91,2.51 0.6,0.6 1.44,0.91 2.51,0.91l54.28 0 0 14.57 -57.7 0z"/>
   <polygon id="_9" class="fil4" points="532.69,297.93 532.69,225.56 599.33,225.56 599.43,240.13 547.26,240.03 547.36,254.41 589.18,254.51 589.28,269.08 547.26,268.98 547.36,283.36 599.33,283.46 599.43,297.93 "/>
  </g>
 </g>
</svg>
